<svg width="176" height="16" viewBox="0 0 176 16" fill="none" xmlns="http://www.w3.org/2000/svg">
<path d="M16.6353 11.2984C16.6353 4.91555 3.20928 8.05195 3.20928 4.71379C3.20928 3.30149 5.81377 2.69622 8.32656 2.69622C12.3984 2.69622 15.8466 4.10853 16.03 4.18189V1.26559C15.6815 1.10051 13.022 3.05176e-05 8.32656 3.05176e-05C4.73163 3.05176e-05 -0.000488281 0.972122 -0.000488281 4.98891C-0.000488281 11.2434 13.022 8.25371 13.022 11.4268C13.022 12.9125 10.0323 13.2059 8.32656 13.2059C3.85123 13.2059 0.549757 11.7019 0.366342 11.6285V14.7099C0.733172 14.875 3.52109 15.9755 8.32656 15.9755C11.7197 15.9755 16.6353 15.2235 16.6353 11.2984Z" fill="#2AA4D6"/>
<path d="M33.8948 15.6086V0.366821H30.5933V6.1444L21.2392 0.366821H17.9744V15.6086H21.2392V3.98009L30.5933 9.62928V15.6086H33.8948Z" fill="#2AA4D6"/>
<path d="M51.8511 8.03358C51.8511 4.27357 49.2833 0 43.5424 0C37.7831 0 35.2153 4.27357 35.2153 8.03358C35.2153 11.8486 37.7831 15.9755 43.5424 15.9755C49.2833 15.9755 51.8511 11.8486 51.8511 8.03358ZM48.6413 7.85016C48.6413 10.1429 47.4308 13.1509 43.5424 13.1509C39.654 13.1509 38.4434 10.1429 38.4434 7.85016C38.4434 5.70421 39.654 2.67786 43.5424 2.67786C47.4308 2.67786 48.6413 5.70421 48.6413 7.85016Z" fill="#2AA4D6"/>
<path d="M69.4589 5.90596C69.4589 1.55902 65.387 0.201752 61.2235 0.201752C57.702 0.201752 53.41 0.36683 53.1899 0.36683V15.6086H56.4364V11.6835C56.5098 11.6835 57.8303 11.7202 59.7562 11.7386C60.2881 11.7386 60.9484 11.7569 61.5537 11.7386L64.9652 15.6086H69.2938L65.2036 11.225C68.1199 10.418 69.4589 8.49211 69.4589 5.90596ZM66.1207 5.94264C66.1207 7.81348 64.9652 9.17075 60.8017 9.17075C58.509 9.17075 56.5464 9.07905 56.4364 9.07905V2.95298C57.9404 2.87961 59.7379 2.86127 60.71 2.86127C64.7634 2.86127 66.1207 4.09015 66.1207 5.94264Z" fill="#2AA4D6"/>
<path d="M87.5253 15.6086L80.4271 6.40117L87.3786 0.366821H82.9216L76.7955 5.44741C75.7134 6.34614 74.778 7.2082 74.0443 7.92351V0.366821H70.7979V15.6086H74.0443V11.28L77.8226 8.1803L83.3251 15.6086H87.5253Z" fill="#2AA4D6"/>
<path d="M104.583 15.6086V12.9124H91.6522V9.3725H104.161V6.78635H91.6522V2.97131H104.418V0.366821H88.4058V15.6086H104.583Z" fill="#2AA4D6"/>
<path d="M122.117 15.6086V12.729H109.315V0.366821H106.013V15.6086H122.117Z" fill="#2AA4D6"/>
<path d="M131.655 8.71221L127.822 0.366821H124.759C124.685 0.696968 123.181 7.07981 123.163 15.6086H126.464C126.519 11.1333 126.611 5.94264 126.868 4.09015C126.96 4.42029 127.987 7.00645 128.794 8.80392L130.316 12.1787H132.902L134.406 8.80392C135.195 7.02479 136.149 4.54868 136.295 4.10848C136.46 5.97932 136.607 11.17 136.681 15.6086H140C139.982 7.07981 138.478 0.696968 138.405 0.366821H135.397L131.655 8.71221Z" fill="#2AA4D6"/>
<path d="M140.771 15.6086H144.146C144.164 14.8199 144.366 13.2609 144.604 12.1421H153.683C153.94 13.2609 154.142 14.8199 154.16 15.6086H157.59C156.856 7.35493 153.665 0.71531 153.5 0.366821H144.879C144.714 0.71531 141.504 7.35493 140.771 15.6086ZM151.299 3.06301C151.922 4.3836 152.876 7.06146 153.316 9.66596H144.971C145.429 7.06146 146.365 4.3836 146.989 3.06301H151.299Z" fill="#2AA4D6"/>
<path d="M175.289 6.12606C175.289 1.55902 171.218 0.201752 167.054 0.201752C163.533 0.201752 159.076 0.36683 158.837 0.36683V15.6086H162.084V12.1054C162.212 12.1054 164.505 12.1971 166.999 12.1971C172.703 12.1971 175.289 9.83104 175.289 6.12606ZM171.915 6.14441C171.915 8.12529 170.741 9.53758 166.486 9.53758C164.211 9.53758 162.194 9.44588 162.084 9.44588V2.95298C163.588 2.87961 165.513 2.86127 166.486 2.86127C170.594 2.86127 171.915 4.1085 171.915 6.14441Z" fill="#2AA4D6"/>
</svg>
